# xmcd CD database file
#
# Track frame offsets:
#	150
#	15825
#	34960
#	59977
#	75657
#	92590
#	112837
#	131512
#	149257
#	160705
#
# Disc length: 2372 seconds
#
# Revision: 0
# Processed by: cddbd v1.4PL0 Copyright (c) Steve Scherf et al.
# Submitted via: CDex 1.50Beta7
#
DISCID=7809420a
DTITLE=Phil Pritchett - Philworld
DYEAR=1996
DGENRE=Country
TTITLE0=Dishwater Hands
TTITLE1=Luke Skywalker And Indiana Jones
TTITLE2=Maria
TTITLE3=Hard To Be A Man
TTITLE4=Time Equals Distance
TTITLE5=Talent Show
TTITLE6=The Way To Santa Fe
TTITLE7=Six On Saturday
TTITLE8=Pumpkin Pie
TTITLE9=Woman
EXTD=YEAR: 1996
EXTT0=
EXTT1=
EXTT2=
EXTT3=
EXTT4=
EXTT5=
EXTT6=
EXTT7=
EXTT8=
EXTT9=
PLAYORDER=
